# xmcd
#
# Track frame offsets: 
#        150
#        19133
#        39308
#        56213
#        74030
#        92640
#        110675
#        124890
#        145358
#        162865
#        182055
#        196608
#
# Disc length: 2873 seconds
#
# Revision: 1
# Processed by: cddbd v1.5.2PL0 Copyright (c) Steve Scherf et al.
# Submitted via: ExactAudioCopy v0.99pb5
#
DISCID=ad0b370c
DTITLE=陳松齡 - 我愛上了英雄
DYEAR=1993
DGENRE=Pop
TTITLE0=我愛上了英雄（電影「英雄地」主題曲）
TTITLE1=我的路
TTITLE2=只有夢裡來去（國語）（合唱：鄭少秋）
TTITLE3=小白船
TTITLE4=心願
TTITLE5=重聚一刻心更暖
TTITLE6=歡笑吧
TTITLE7=關於真愛的故事
TTITLE8=千里萬里心相連
TTITLE9=月亮
TTITLE10=不想再多講
TTITLE11=我愛上了英雄（國語）
EXTD=
EXTT0=
EXTT1=
EXTT2=
EXTT3=
EXTT4=
EXTT5=
EXTT6=
EXTT7=
EXTT8=
EXTT9=
EXTT10=
EXTT11=
PLAYORDER=
